<svg width="23" height="22" viewBox="0 0 23 22" fill="none" xmlns="http://www.w3.org/2000/svg">
<path d="M20.3718 9.21813H19.6391V9.18037H11.4518V12.8192H16.5929C15.8429 14.9374 13.8274 16.458 11.4518 16.458C8.43746 16.458 5.99354 14.0141 5.99354 10.9998C5.99354 7.98548 8.43746 5.54156 11.4518 5.54156C12.8431 5.54156 14.109 6.06646 15.0728 6.92386L17.6459 4.35076C16.0212 2.83656 13.8479 1.90276 11.4518 1.90276C6.42793 1.90276 2.35474 5.97595 2.35474 10.9998C2.35474 16.0236 6.42793 20.0968 11.4518 20.0968C16.4756 20.0968 20.5488 16.0236 20.5488 10.9998C20.5488 10.3898 20.486 9.79442 20.3718 9.21813Z" fill="#FFC107"/>
<path d="M3.40381 6.76557L6.39263 8.9575C7.20136 6.95524 9.15995 5.54156 11.4519 5.54156C12.8433 5.54156 14.1092 6.06646 15.073 6.92386L17.6461 4.35076C16.0214 2.83657 13.8481 1.90276 11.4519 1.90276C7.95778 1.90276 4.92756 3.87545 3.40381 6.76557Z" fill="#FF3D00"/>
<path d="M11.4509 20.0973C13.8007 20.0973 15.9358 19.198 17.55 17.7357L14.7345 15.3532C13.8211 16.045 12.6858 16.4585 11.4509 16.4585C9.08478 16.4585 7.07571 14.9497 6.31883 12.8442L3.35229 15.1298C4.85785 18.0759 7.91536 20.0973 11.4509 20.0973Z" fill="#4CAF50"/>
<path d="M20.3715 9.21817H19.6387V9.18042H11.4514V12.8192H16.5926C16.2324 13.8367 15.5778 14.7141 14.7336 15.3532C14.7341 15.3527 14.7345 15.3527 14.735 15.3523L17.5505 17.7348C17.3513 17.9158 20.5484 15.5483 20.5484 10.9998C20.5484 10.3899 20.4857 9.79447 20.3715 9.21817Z" fill="#1976D2"/>
</svg>
